<svg id="Layer_3" enable-background="new 0 0 64 64" height="512" viewBox="0 0 64 64" width="512" xmlns="http://www.w3.org/2000/svg"><g><path d="m23.5 25c-1.381 0-2.5 1.119-2.5 2.5v-2c0-1.381-1.119-2.5-2.5-2.5s-2.5 1.119-2.5 2.5v-2c0-1.381-1.119-2.5-2.5-2.5s-2.5 1.119-2.5 2.5v2c0-1.381-1.119-2.5-2.5-2.5s-2.5 1.119-2.5 2.5v2.5c-2.209 0-4 1.791-4 4v8c0 3.357 2.068 6.231 5 7.418v-.001 6.583h14v-6.583.001c2.932-1.187 5-4.061 5-7.418v-5.5-1.5-5.5c0-1.381-1.119-2.5-2.5-2.5z" fill="#efbe9a"/><path d="m38 27.5v5.5 1.5 5.5c0 3.357 2.068 6.231 5 7.418v-.001 6.583h14v-6.583.001c2.932-1.187 5-4.061 5-7.418v-8c0-2.209-1.791-4-4-4v-2.5c0-1.381-1.119-2.5-2.5-2.5s-2.5 1.119-2.5 2.5v-2c0-1.381-1.119-2.5-2.5-2.5s-2.5 1.119-2.5 2.5v2c0-1.381-1.119-2.5-2.5-2.5s-2.5 1.119-2.5 2.5v2c0-1.381-1.119-2.5-2.5-2.5s-2.5 1.119-2.5 2.5z" fill="#efbe9a"/><path d="m54 30c0-2.008-.228-3.944-.641-5.773-.223.374-.359.806-.359 1.273v-2c0-1.381-1.119-2.5-2.5-2.5s-2.5 1.119-2.5 2.5v2c0-1.381-1.119-2.5-2.5-2.5s-2.5 1.119-2.5 2.5v2c0-1.381-1.119-2.5-2.5-2.5s-2.5 1.119-2.5 2.5v5.5 1.5 5.5c0 3.357 2.068 6.231 5 7.418v-.001 1.841c6.339-2.336 11-10.062 11-19.258z" fill="#f5d8c2"/><path d="m24 56h6v4h-6z" fill="#8892a0"/><path d="m34 56h6v4h-6z" fill="#8892a0"/><path d="m30 54h4v8h-4z" fill="#666e78"/><g fill="#8892a0"><path d="m4 54h20v8h-20z"/><path d="m40 54h20v8h-20z"/><path d="m44 8c0 8.746-4.371 16.914-11.649 21.766l-.351.234-.351-.234c-7.278-4.852-11.649-13.02-11.649-21.766l12-6z"/></g><circle cx="32" cy="15" fill="#f7d881" r="6"/><path d="m35.608 10.214c-1.005-.759-2.252-1.214-3.608-1.214-3.314 0-6 2.686-6 6 0 1.443.51 2.766 1.359 3.801 3.983-.814 7.18-4.19 8.249-8.587z" fill="#fae8b3"/><path d="m18.5 23c-1.381 0-2.5 1.119-2.5 2.5v-2c0-1.381-1.119-2.5-2.5-2.5s-2.5 1.119-2.5 2.5v2c0-1.381-1.119-2.5-2.5-2.5s-2.5 1.119-2.5 2.5v2.5c-2.209 0-4 1.791-4 4v8c0 3.357 2.068 6.231 5 7.418v-.001 3.179c7.957-2.126 14-12.549 14-25.096 0-1.381-1.119-2.5-2.5-2.5z" fill="#f5d8c2"/><g><path d="m40 57h20v2h-20z" fill="#444950"/></g><g><path d="m52 45h-2c0-3.521 2.612-6.442 6-6.929v-4.071h-2.5c-1.93 0-3.5-1.57-3.5-3.5s1.57-3.5 3.5-3.5h4.5v2h-4.5c-.827 0-1.5.673-1.5 1.5s.673 1.5 1.5 1.5h3.5c.553 0 1 .448 1 1v6c0 .552-.447 1-1 1-2.757 0-5 2.243-5 5z" fill="#b38f73"/></g><g fill="#b38f73"><path d="m53 33.949c-.778-.113-1.475-.47-2-1.008v3.559h2z"/><path d="m53 27.051v-1.551h-2v2.558c.525-.537 1.222-.895 2-1.007z"/></g><g><path d="m46 25.5h2v11h-2z" fill="#b38f73"/></g><g><path d="m41 27.5h2v9h-2z" fill="#b38f73"/></g><g><path d="m12 45h2c0-3.521-2.612-6.442-6-6.929v-4.071h2.5c1.93 0 3.5-1.57 3.5-3.5s-1.57-3.5-3.5-3.5h-4.5v2h4.5c.827 0 1.5.673 1.5 1.5s-.673 1.5-1.5 1.5h-3.5c-.553 0-1 .448-1 1v6c0 .552.447 1 1 1 2.757 0 5 2.243 5 5z" fill="#b38f73"/></g><g fill="#b38f73"><path d="m11 33.949c.778-.113 1.475-.47 2-1.008v3.559h-2z"/><path d="m11 27.051v-1.551h2v2.558c-.525-.537-1.222-.895-2-1.007z"/></g><g><path d="m16 25.5h2v11h-2z" fill="#b38f73"/></g><g><path d="m21 27.5h2v9h-2z" fill="#b38f73"/></g><g><path d="m4 57h20v2h-20z" fill="#444950"/></g></g></svg>