<?xml version="1.0" encoding="iso-8859-1"?>
<!-- Generator: Adobe Illustrator 19.0.0, SVG Export Plug-In . SVG Version: 6.00 Build 0)  -->
<svg version="1.1" id="Capa_1" xmlns="http://www.w3.org/2000/svg" xmlns:xlink="http://www.w3.org/1999/xlink" x="0px" y="0px"
	 viewBox="0 0 512.001 512.001" style="enable-background:new 0 0 512.001 512.001;" xml:space="preserve">
<path style="fill:#FFD15C;" d="M383.649,7.655c-26.472-0.771-51.028,7.158-71.072,21.129c-0.02,0.03-0.041,0.041-0.061,0.051
	c-4.41,3.102-9.449,5.171-14.782,6.002l-59.361,9.317c-12.835,2.018-22.285,13.059-22.285,26.036v111.018
	c0,12.988,9.449,24.028,22.285,26.046l52.741,8.263c3.052,0.477,5.749-4.055,7.888-2.342c20.216,16.222,53.136,30.619,81.078,30.619
	c60.345,0,110.125-45.279,117.212-103.708l0.01-28.773C490.429,53.857,442.818,9.399,383.649,7.655z M380.08,204.405
	c-43.464,0-78.706-35.232-78.706-78.706c0-43.464,35.242-78.706,78.706-78.706s78.706,35.242,78.706,78.706
	C458.786,169.173,423.544,204.405,380.08,204.405z"/>
<circle style="fill:#F4A14E;" cx="481.624" cy="125.699" r="22.777"/>
<path style="fill:#FFD15C;" d="M228.255,322.722c-4.137-8.131-8.841-15.624-13.748-21.98l-1.328-1.683
	c-1.713-2.139,2.819-4.836,2.342-7.888l-8.263-52.741c-2.018-12.835-13.059-22.285-26.046-22.285H70.194
	c-12.977,0-24.018,9.449-26.036,22.285l-9.317,59.361c-0.831,5.333-2.9,10.372-6.002,14.782c-0.01,0.02-0.02,0.041-0.051,0.061
	c-13.971,20.044-21.899,44.6-21.129,71.072c1.744,59.169,46.202,106.78,103.657,113.654l28.773-0.01
	c58.429-7.087,103.708-56.867,103.708-117.212C243.797,361.462,237.369,340.566,228.255,322.722z M125.703,458.843
	c-43.464,0-78.706-35.242-78.706-78.706s35.242-78.706,78.706-78.706c34.167,0,63.234,21.768,74.123,52.183
	c2.971,8.283,4.583,17.215,4.583,26.523C204.409,423.601,169.177,458.843,125.703,458.843z"/>
<circle style="fill:#F4A14E;" cx="125.699" cy="481.685" r="22.777"/>
<g>
	<path style="fill:#EDBB4C;" d="M228.255,322.722l-28.429,30.892c-10.889-30.416-39.956-52.183-74.123-52.183l87.476-2.372
		l1.328,1.683C219.414,307.099,224.118,314.591,228.255,322.722z"/>
	<path style="fill:#EDBB4C;" d="M322.665,228.251l30.892-28.429c-30.416-10.889-52.183-39.956-52.183-74.123l-2.372,87.476
		l1.683,1.328C307.042,219.41,314.534,224.114,322.665,228.251z"/>
</g>
<path d="M512,125.701c0-7.79-2.95-14.904-7.79-20.287c-4.468-27.799-18.165-53.36-38.923-72.424
	c-22.153-20.345-51.046-32.041-81.356-32.933c-27.238-0.802-53.396,6.978-75.644,22.493c-0.079,0.055-0.156,0.112-0.233,0.169
	c-3.439,2.379-7.39,3.971-11.433,4.609l-59.37,9.312c-16.633,2.616-28.705,16.727-28.705,33.554v29.57
	c-4.302-2.421-9.261-3.809-14.539-3.809c-7.463,0-14.288,2.769-19.516,7.325c-5.227-4.556-12.053-7.325-19.516-7.325
	c-16.248,0-29.487,13.096-29.734,29.285c-16.19,0.248-29.285,13.487-29.285,29.734c0,7.463,2.769,14.287,7.325,19.516
	c-4.556,5.228-7.325,12.053-7.325,19.516c0,5.278,1.388,10.236,3.809,14.539H70.194c-16.827,0-30.939,12.072-33.555,28.708
	l-9.311,59.36c-0.639,4.052-2.234,8.005-4.614,11.445c-0.057,0.075-0.112,0.151-0.165,0.228
	C7.035,330.537-0.744,356.695,0.056,383.932c0.892,30.31,12.589,59.202,32.933,81.355c19.064,20.758,44.624,34.455,72.423,38.923
	c5.384,4.839,12.497,7.79,20.288,7.79c7.801,0,14.923-2.957,20.309-7.808c24.694-3.997,47.329-15.145,65.73-32.428
	c3.061-2.875,3.212-7.687,0.337-10.748c-2.874-3.062-7.687-3.212-10.749-0.337c-13.111,12.314-28.668,21.076-45.644,25.827
	c0.259-1.592,0.398-3.223,0.398-4.887c0-7.001-2.387-13.451-6.38-18.594c35.945-10.426,62.307-43.625,62.307-82.887
	c0-30.288-15.696-56.963-39.366-72.369l36.874-1c13.25,17.812,26.674,47.218,26.674,73.367c0,22.156-6.533,43.527-18.894,61.805
	c-2.353,3.479-1.44,8.206,2.039,10.558c1.306,0.883,2.787,1.306,4.253,1.306c2.439,0,4.836-1.172,6.305-3.345
	c14.068-20.802,21.505-45.12,21.505-70.324c0-29.44-14.178-61.346-29.159-81.745c0.939-2.65,1.242-5.52,0.794-8.401l-8.272-52.74
	c-2.616-16.633-16.728-28.705-33.555-28.705h-29.569c2.421-4.302,3.809-9.26,3.809-14.539c0-7.463-2.769-14.287-7.325-19.516
	c4.462-5.12,7.202-11.772,7.314-19.054c7.283-0.112,13.935-2.852,19.054-7.314c5.227,4.556,12.053,7.325,19.516,7.325
	c5.278,0,10.236-1.388,14.539-3.809v29.569c0,16.827,12.072,30.939,28.708,33.555l52.744,8.273c0.899,0.14,1.797,0.209,2.689,0.209
	c1.965,0,3.892-0.349,5.715-0.996c20.401,14.978,52.299,29.15,81.734,29.15c61.789,0,114.241-44.956,124.047-105.379
	C509.039,140.633,512,133.508,512,125.701z M496.793,125.701c0,8.366-6.807,15.173-15.173,15.173
	c-8.366,0-15.173-6.807-15.173-15.173s6.807-15.172,15.173-15.172C489.985,110.528,496.793,117.334,496.793,125.701z
	 M125.701,140.436c1.296,0,2.545,0.187,3.741,0.506c2.529,4.22,6.072,7.763,10.292,10.292c0.319,1.196,0.506,2.445,0.506,3.741
	c0,4.333-1.916,8.219-4.933,10.886c-3.015-1.032-6.244-1.6-9.604-1.6c-3.36,0-6.589,0.569-9.604,1.6
	c-3.017-2.665-4.933-6.552-4.933-10.886C111.162,146.958,117.684,140.436,125.701,140.436z M140.873,481.619
	c0,3.075-0.926,5.934-2.503,8.328c-2.642,0.609-4.689,2.569-5.501,5.04c-2.136,1.15-4.577,1.806-7.168,1.806
	c-8.366,0-15.173-6.807-15.173-15.173c0-8.366,6.807-15.173,15.173-15.173C134.067,466.446,140.873,473.253,140.873,481.619z
	 M196.801,380.139c0,39.205-31.895,71.1-71.1,71.1s-71.1-31.895-71.1-71.1s31.895-71.1,71.1-71.1S196.801,340.934,196.801,380.139z
	 M199.738,239.61l8.153,51.991l-82.397,2.234v0.002c-47.495,0.113-86.102,38.781-86.102,86.303
	c0,39.262,26.361,72.461,62.307,82.887c-3.994,5.143-6.38,11.593-6.38,18.594c0,1.67,0.141,3.306,0.401,4.903
	c-19.692-5.488-37.593-16.346-51.529-31.522c-17.873-19.461-28.149-44.859-28.934-71.516c-0.702-23.902,6.103-46.849,19.681-66.376
	c0.042-0.056,0.081-0.112,0.121-0.168l0.001,0.001c3.762-5.362,6.284-11.572,7.292-17.966l9.311-59.364
	c1.445-9.19,9.238-15.86,18.53-15.86h111.015C190.5,223.753,198.293,230.423,199.738,239.61z M111.162,194.007
	c0-4.333,1.916-8.219,4.933-10.886c3.015,1.032,6.244,1.6,9.604,1.6c3.36,0,6.589-0.569,9.604-1.6
	c3.017,2.665,4.933,6.552,4.933,10.886c0,8.017-6.522,14.539-14.539,14.539S111.162,202.023,111.162,194.007z M154.975,140.24
	c-1.296,0-2.545-0.187-3.741-0.506c-2.529-4.22-6.072-7.763-10.292-10.292c-0.319-1.196-0.506-2.445-0.506-3.741
	c0-8.017,6.522-14.539,14.539-14.539c4.334,0,8.219,1.916,10.886,4.933c-1.032,3.015-1.6,6.244-1.6,9.604
	c0,3.361,0.569,6.589,1.6,9.604C163.194,138.323,159.308,140.24,154.975,140.24z M194.006,140.24c-4.334,0-8.219-1.916-10.886-4.933
	c1.032-3.015,1.6-6.244,1.6-9.604c0-3.361-0.569-6.589-1.6-9.604c2.665-3.017,6.552-4.933,10.886-4.933
	c8.017,0,14.539,6.522,14.539,14.539S202.023,140.24,194.006,140.24z M291.601,207.892l-51.988-8.153
	c-9.19-1.445-15.86-9.238-15.86-18.531V70.194c0-9.293,6.67-17.086,15.857-18.53l59.373-9.312c6.387-1.007,12.598-3.527,17.96-7.29
	l-0.001-0.002c0.06-0.042,0.118-0.084,0.176-0.127c19.525-13.573,42.458-20.383,66.368-19.675
	c26.656,0.785,52.055,11.06,71.516,28.934c15.176,13.938,26.035,31.838,31.522,51.53c-1.597-0.261-3.234-0.401-4.903-0.401
	c-7.001,0-13.451,2.387-18.594,6.38c-10.426-35.945-43.625-62.307-82.887-62.307c-47.521,0-86.19,38.606-86.303,86.102h-0.002
	L291.601,207.892z M380.136,236.191c-26.147,0-55.554-13.423-73.367-26.675l0.998-36.824c7.566,11.657,17.949,21.527,30.526,28.511
	c3.672,2.039,8.301,0.715,10.338-2.956c2.039-3.671,0.716-8.3-2.956-10.339c-22.599-12.55-36.638-36.385-36.638-62.206
	c0-39.204,31.895-71.1,71.1-71.1s71.1,31.895,71.1,71.1s-31.895,71.1-71.1,71.1c-4.227,0-8.461-0.373-12.583-1.109
	c-4.127-0.738-8.083,2.016-8.822,6.15c-0.738,4.135,2.016,8.083,6.15,8.822c5.002,0.892,10.135,1.345,15.255,1.345
	c39.262,0,72.461-26.361,82.887-62.307c5.143,3.994,11.593,6.38,18.594,6.38c1.663,0,3.292-0.14,4.883-0.397
	C473.347,202.575,430.235,236.191,380.136,236.191z"/>
<path d="M262.106,167.622c-1.173-2.936-4.246-4.844-7.391-4.685c-3.308,0.168-6.194,2.528-7.003,5.741
	c-1.689,6.702,6.08,11.995,11.719,8.086C262.315,174.764,263.479,170.867,262.106,167.622z"/>
<path d="M166.307,261.414c2.938,1.934,6.905,1.61,9.465-0.816c2.173-2.058,2.915-5.32,1.887-8.122
	c-1.084-2.953-3.972-4.999-7.134-4.992c-3.163,0.006-6.043,2.035-7.135,4.992C162.196,255.715,163.413,259.509,166.307,261.414z"/>
<g>
</g>
<g>
</g>
<g>
</g>
<g>
</g>
<g>
</g>
<g>
</g>
<g>
</g>
<g>
</g>
<g>
</g>
<g>
</g>
<g>
</g>
<g>
</g>
<g>
</g>
<g>
</g>
<g>
</g>
</svg>
