<svg height="512" viewBox="0 0 64 64" width="512" xmlns="http://www.w3.org/2000/svg"><g id="Money_Bag-Bitcoin-Cryptocurrency-Finance-Digital_Currency" data-name="Money Bag-Bitcoin-Cryptocurrency-Finance-Digital Currency"><path d="m56 54.78a6.214 6.214 0 0 1 -6.22 6.22h-35.56a6.214 6.214 0 0 1 -6.22-6.22 6.282 6.282 0 0 1 .94-3.29l3.12-4.98a6.282 6.282 0 0 0 .94-3.29v-12.22a12 12 0 0 1 12-12h14a12 12 0 0 1 12 12v12.22a6.282 6.282 0 0 0 .94 3.29l3.12 4.98a6.282 6.282 0 0 1 .94 3.29z" fill="#5aaae7"/><circle cx="34" cy="42" fill="#3d9ae2" r="15"/><circle cx="32" cy="40" fill="#ff9811" r="15"/><circle cx="34" cy="42" fill="#ee8700" r="11"/><circle cx="32" cy="40" fill="#ffd422" r="11"/><path d="m24 17a2.006 2.006 0 0 1 2-2h12a2.015 2.015 0 0 1 2 2 2.006 2.006 0 0 1 -2 2h-12a2.015 2.015 0 0 1 -2-2z" fill="#3d9ae2"/><path d="m44 5-7 10h-10l-7-10c1.84 0 2.16-2 4-2s2.16 2 4 2 2.17-2 4-2 2.17 2 4 2 2.17-2 4-2 2.17 2 4 2z" fill="#5aaae7"/><path d="m37 38a3 3 0 0 0 -2-2.816v-2.184h-2v2h-2v-2h-2v2h-2v2h2v6h-2v2h2v2h2v-2h2v2h2v-2.184a2.972 2.972 0 0 0 1.22-4.816 2.981 2.981 0 0 0 .78-2zm-6-1h3a1 1 0 0 1 0 2h-3zm3 6h-3v-2h3a1 1 0 0 1 0 2z" fill="#ff5023"/></g></svg>