<svg id="Capa_1" enable-background="new 0 0 512 512" height="512" viewBox="0 0 512 512" width="512" xmlns="http://www.w3.org/2000/svg"><g><path d="m336.567 0h-161.134c-96.734 0-175.433 78.699-175.433 175.433v161.135c0 96.733 78.699 175.432 175.433 175.432h161.135c96.733 0 175.432-78.699 175.432-175.433v-161.134c0-96.734-78.699-175.433-175.433-175.433zm160.433 336.567c0 88.463-71.97 160.433-160.433 160.433h-161.134c-88.463 0-160.433-71.97-160.433-160.433v-161.134c0-88.463 71.97-160.433 160.433-160.433h161.135c88.462 0 160.432 71.97 160.432 160.433z"/><path d="m336.567 28h-161.134c-81.295 0-147.433 66.138-147.433 147.433v115.518c0 4.142 3.358 7.5 7.5 7.5s7.5-3.358 7.5-7.5v-115.518c0-73.024 59.409-132.433 132.433-132.433h161.135c73.023 0 132.432 59.409 132.432 132.433v161.135c0 73.023-59.409 132.432-132.433 132.432h-161.134c-73.024 0-132.433-59.409-132.433-132.433v-10.397c0-4.142-3.358-7.5-7.5-7.5s-7.5 3.358-7.5 7.5v10.397c0 81.295 66.138 147.433 147.433 147.433h161.135c81.294 0 147.432-66.138 147.432-147.433v-161.134c0-81.295-66.138-147.433-147.433-147.433z"/><path d="m209.974 358.271c16.593 0 30.092-13.5 30.092-30.092v-144.357c0-16.593-13.5-30.092-30.092-30.092h-23.318c-16.593 0-30.092 13.5-30.092 30.092v144.356c0 16.593 13.5 30.092 30.092 30.092h23.318zm-38.411-108.623h47.151c3.502 0 6.352 2.849 6.352 6.352s-2.849 6.352-6.352 6.352h-47.151zm15.093-80.919h23.318c8.322 0 15.092 6.771 15.092 15.092v51.792c-2.007-.627-4.141-.965-6.352-.965h-47.151v-50.827c0-8.321 6.771-15.092 15.093-15.092zm-15.093 159.449v-50.827h47.151c2.211 0 4.344-.338 6.352-.965v51.792c0 8.322-6.771 15.092-15.092 15.092h-23.318c-8.322.001-15.093-6.77-15.093-15.092z"/><path d="m279.434 234.648c-4.143 0-7.5 3.358-7.5 7.5v86.03c0 16.593 13.5 30.092 30.093 30.092h23.318c16.593 0 30.092-13.5 30.092-30.092v-144.356c0-16.593-13.499-30.092-30.092-30.092h-23.318c-16.593 0-30.093 13.5-30.093 30.092v23.085c0 4.142 3.357 7.5 7.5 7.5s7.5-3.358 7.5-7.5v-23.085c0-8.322 6.771-15.092 15.093-15.092h23.318c8.321 0 15.092 6.771 15.092 15.092v144.356c0 8.322-6.771 15.092-15.092 15.092h-23.318c-8.322 0-15.093-6.771-15.093-15.092v-86.03c0-4.142-3.358-7.5-7.5-7.5z"/></g></svg>