<svg id="Capa_1" enable-background="new 0 0 512 512" height="512" viewBox="0 0 512 512" width="512" xmlns="http://www.w3.org/2000/svg"><g><path d="m336.567 0h-161.134c-96.734 0-175.433 78.699-175.433 175.433v161.135c0 96.733 78.699 175.432 175.433 175.432h161.135c96.733 0 175.432-78.699 175.432-175.433v-161.134c0-96.734-78.699-175.433-175.433-175.433zm160.433 336.567c0 88.463-71.97 160.433-160.433 160.433h-161.134c-88.463 0-160.433-71.97-160.433-160.433v-161.134c0-88.463 71.97-160.433 160.433-160.433h161.135c88.462 0 160.432 71.97 160.432 160.433z"/><path d="m336.567 28h-10.743c-4.142 0-7.5 3.358-7.5 7.5s3.358 7.5 7.5 7.5h10.743c73.024 0 132.433 59.409 132.433 132.433v161.135c0 73.023-59.409 132.432-132.433 132.432h-161.134c-73.024 0-132.433-59.409-132.433-132.433v-161.134c0-73.024 59.409-132.433 132.433-132.433h115.249c4.142 0 7.5-3.358 7.5-7.5s-3.358-7.5-7.5-7.5h-115.249c-81.295 0-147.433 66.138-147.433 147.433v161.135c0 81.294 66.138 147.432 147.433 147.432h161.135c81.294 0 147.432-66.138 147.432-147.433v-161.134c0-81.295-66.138-147.433-147.433-147.433z"/><path d="m183.692 297.574c-4.142 0-7.5 3.358-7.5 7.5v34.055c0 11.002 5.746 20.754 15.37 26.085 8.398 4.653 20.426 5.433 30.266-.804l132.881-83.129c8.77-5.486 14.005-14.937 14.005-25.281s-5.235-19.794-14.005-25.281l-132.881-83.129c-9.328-5.835-20.642-6.135-30.266-.804s-15.37 15.083-15.37 26.085v96.98c0 4.142 3.358 7.5 7.5 7.5h55.944c11.773 0 21.352-9.578 21.352-21.352s-9.578-21.352-21.352-21.352h-48.444v-61.777c0-5.468 2.855-10.314 7.639-12.964 4.782-2.651 10.406-2.501 15.042.399l132.881 83.129c4.423 2.767 6.96 7.347 6.96 12.564s-2.537 9.797-6.96 12.564l-132.881 83.129c-4.636 2.9-10.26 3.049-15.042.399-4.783-2.649-7.639-7.496-7.639-12.964v-34.055c0-4.139-3.358-7.497-7.5-7.497zm55.944-47.926c3.502 0 6.352 2.849 6.352 6.352s-2.849 6.352-6.352 6.352h-48.444v-12.703h48.444z"/></g></svg>