<svg id="Capa_1" enable-background="new 0 0 497 497" height="512" viewBox="0 0 497 497" width="512" xmlns="http://www.w3.org/2000/svg"><g><path d="m497 275.75v8.75l-14.514 27.47 14.514 26.53v23c0 16.57-13.43 30-30 30h-437c-16.57 0-30-13.43-30-30v-23l15.253-26.53-15.253-27.47v-8.75c0-17.89 7.99-34.85 21.78-46.25l41.039-33.968 372 .511 40.401 33.457c13.79 11.4 21.78 28.36 21.78 46.25z" fill="#7e8a94"/><path d="m65 391.5h-35c-16.57 0-30-13.43-30-30v-23l15.253-26.53-15.253-26.53v-9.69c0-17.89 7.99-34.85 21.78-46.25l41.04-33.97 34.94.05-40.98 33.92c-13.79 11.4-21.78 28.36-21.78 46.25v85.75c0 16.57 13.43 30 30 30z" fill="#5f6c76"/><path d="m126 411.5v40c0 11.046-8.954 20-20 20h-54c-11.046 0-20-8.954-20-20v-40z" fill="#5f6c76"/><path d="m465 411.5v40c0 11.046-8.954 20-20 20h-54c-11.046 0-20-8.954-20-20v-40z" fill="#5f6c76"/><path d="m72 471.5h-20c-11.05 0-20-8.95-20-20v-40h20v40c0 11.05 8.95 20 20 20z" fill="#4f5a61"/><path d="m411 471.5h-20c-11.05 0-20-8.95-20-20v-40h20v40c0 11.05 8.95 20 20 20z" fill="#4f5a61"/><path d="m35 285.44v53.06h-35v-54h11.68c7.79 0 15.56.31 23.32.94z" fill="#e8a42b"/><path d="m103 314.96c0 6.5-2.64 12.38-6.9 16.64s-10.14 6.9-16.64 6.9h-44.46v-53.06c5.72.46 11.43 1.09 17.12 1.89l30.62 4.32c11.62 1.63 20.26 11.58 20.26 23.31z" fill="#f3d333"/><path d="m461 285.44v53.06h-44.46c-6.5 0-12.38-2.64-16.64-6.9s-6.9-10.14-6.9-16.64c0-11.73 8.64-21.68 20.26-23.31l30.62-4.32c5.69-.8 11.4-1.43 17.12-1.89z" fill="#f3d333"/><path d="m365 314.5v67l-116 10-116-10v-67c0-1.76.15-3.49.46-5.17 2.44-14.11 14.73-24.83 29.54-24.83h172c14.81 0 27.1 10.72 29.54 24.83.31 1.68.46 3.41.46 5.17z" fill="#5f6c76"/><g fill="#4f5a61"><path d="m133 341.67h232v15h-232z"/><path d="m365 314.5v9.83h-232v-9.83c0-1.76.15-3.49.46-5.17h231.08c.31 1.68.46 3.41.46 5.17z"/><path d="m240.5 284.5h15v97h-15z"/><path d="m497 351.5v40c0 16.57-13.43 30-30 30h-437c-16.57 0-30-13.43-30-30v-40c0 16.57 13.43 30 30 30h437c16.57 0 30-13.43 30-30z"/></g><path d="m497 284.5v54h-36v-53.06c7.76-.63 15.53-.94 23.32-.94z" fill="#e8a42b"/><path d="m125.603 79.5h245.793c23.433 0 43.722 16.273 48.808 39.147l14.657 65.916c1.856 8.347.757 17.079-3.108 24.706-6.29 12.41-19.021 20.231-32.934 20.231h-300.638c-13.913 0-26.645-7.821-32.934-20.231-3.866-7.627-4.964-16.359-3.108-24.706l14.657-65.916c5.086-22.874 25.375-39.147 48.807-39.147z" fill="#f5faff"/><path d="m429.66 212.86c-3 4.58-6.95 8.37-11.52 11.18-5.7 3.5-12.36 5.46-19.32 5.46h-300.64c-13.91 0-26.64-7.82-32.93-20.23-2.64-5.21-3.99-10.93-3.99-16.69 0-2.68.29-5.37.88-8.02l14.66-65.91c3.63-16.33 15.01-29.3 29.75-35.38-4.65 5.81-8.05 12.73-9.75 20.38l-14.66 65.91c-.59 2.65-.88 5.34-.88 8.02 0 5.76 1.35 11.48 3.99 16.69 6.29 12.41 19.02 20.23 32.93 20.23h300.64c3.74 0 7.38-.56 10.84-1.64z" fill="#d7e1f2"/><path d="m300 79.5v29c0 5.523-5.361 10-11.974 10h-77.053c-6.613 0-11.974-4.477-11.974-10v-29z" fill="#d7e1f2"/><path d="m371 55.5v24h-100v-54h70c16.57 0 30 13.43 30 30z" fill="#d82f3d"/><path d="m226 25.5h45v54h-45z" fill="#5f6c76"/><path d="m271 25.5h-37.5-7.5v54h15v-34c0-2.761 2.239-5 5-5h25z" fill="#4f5a61"/><path d="m226 25.5v54h-99v-24c0-16.57 13.43-30 30-30z" fill="#6e9cd3"/><path d="m368.34 43.16c-3.76-1.71-7.94-2.66-12.34-2.66h-85v-15h70c12.17 0 22.65 7.24 27.34 17.66z" fill="#c42330"/><path d="m226 25.5v15h-54c-16.57 0-30 13.43-30 30v9h-15v-24c0-16.57 13.43-30 30-30z" fill="#5276b9"/></g></svg>