<?xml version="1.0" encoding="iso-8859-1"?>
<!-- Generator: Adobe Illustrator 19.0.0, SVG Export Plug-In . SVG Version: 6.00 Build 0)  -->
<svg version="1.1" id="Capa_1" xmlns="http://www.w3.org/2000/svg" xmlns:xlink="http://www.w3.org/1999/xlink" x="0px" y="0px"
	 viewBox="0 0 512 512" style="enable-background:new 0 0 512 512;" xml:space="preserve">
<rect y="80" style="fill:#ECEFF1;" width="512" height="352"/>
<rect y="176" style="fill:#F4511E;" width="160" height="64"/>
<rect y="272" style="fill:#FF8A65;" width="96" height="64"/>
<g>
	<rect y="368" style="fill:#F4511E;" width="160" height="64"/>
	<rect x="128" y="80" style="fill:#F4511E;" width="160" height="64"/>
</g>
<g>
	<rect x="192" y="176" style="fill:#FF8A65;" width="160" height="64"/>
	<rect y="80" style="fill:#FF8A65;" width="96" height="64"/>
	<rect x="192" y="368" style="fill:#FF8A65;" width="160" height="64"/>
	<rect x="320" y="80" style="fill:#FF8A65;" width="192" height="64"/>
</g>
<rect x="384" y="176" style="fill:#F4511E;" width="128" height="64"/>
<rect x="320" y="272" style="fill:#FF8A65;" width="192" height="64"/>
<g>
	<rect x="128" y="272" style="fill:#F4511E;" width="160" height="64"/>
	<rect x="384" y="368" style="fill:#F4511E;" width="128" height="64"/>
</g>
<path d="M176,464H16c-8.837,0-16-7.163-16-16v-96c0-8.837,7.163-16,16-16h160c8.837,0,16,7.163,16,16v96
	C192,456.837,184.837,464,176,464z M32,432h128v-64H32V432z"/>
<path d="M368,464H176c-8.837,0-16-7.163-16-16v-96c0-8.837,7.163-16,16-16h192c8.837,0,16,7.163,16,16v96
	C384,456.837,376.837,464,368,464z M192,432h160v-64H192V432z"/>
<path d="M496,464H368c-8.837,0-16-7.163-16-16v-96c0-8.837,7.163-16,16-16h128c8.837,0,16,7.163,16,16v96
	C512,456.837,504.837,464,496,464z M384,432h96v-64h-96V432z"/>
<path d="M176,272H16c-8.837,0-16-7.163-16-16v-96c0-8.837,7.163-16,16-16h160c8.837,0,16,7.163,16,16v96
	C192,264.837,184.837,272,176,272z M32,240h128v-64H32V240z"/>
<path d="M368,272H176c-8.837,0-16-7.163-16-16v-96c0-8.837,7.163-16,16-16h192c8.837,0,16,7.163,16,16v96
	C384,264.837,376.837,272,368,272z M192,240h160v-64H192V240z"/>
<path d="M496,272H368c-8.837,0-16-7.163-16-16v-96c0-8.837,7.163-16,16-16h128c8.837,0,16,7.163,16,16v96
	C512,264.837,504.837,272,496,272z M384,240h96v-64h-96V240z"/>
<path d="M112,368H16c-8.837,0-16-7.163-16-16v-96c0-8.837,7.163-16,16-16h96c8.837,0,16,7.163,16,16v96
	C128,360.837,120.837,368,112,368z M32,336h64v-64H32V336z"/>
<path d="M304,368H112c-8.837,0-16-7.163-16-16v-96c0-8.837,7.163-16,16-16h192c8.837,0,16,7.163,16,16v96
	C320,360.837,312.837,368,304,368z M128,336h160v-64H128V336z"/>
<path d="M496,368H304c-8.837,0-16-7.163-16-16v-96c0-8.837,7.163-16,16-16h192c8.837,0,16,7.163,16,16v96
	C512,360.837,504.837,368,496,368z M320,336h160v-64H320V336z"/>
<path d="M112,176H16c-8.837,0-16-7.163-16-16V64c0-8.837,7.163-16,16-16h96c8.837,0,16,7.163,16,16v96
	C128,168.837,120.837,176,112,176z M32,144h64V80H32V144z"/>
<path d="M304,176H112c-8.837,0-16-7.163-16-16V64c0-8.837,7.163-16,16-16h192c8.837,0,16,7.163,16,16v96
	C320,168.837,312.837,176,304,176z M128,144h160V80H128V144z"/>
<path d="M496,176H304c-8.837,0-16-7.163-16-16V64c0-8.837,7.163-16,16-16h192c8.837,0,16,7.163,16,16v96
	C512,168.837,504.837,176,496,176z M320,144h160V80H320V144z"/>
<g>
</g>
<g>
</g>
<g>
</g>
<g>
</g>
<g>
</g>
<g>
</g>
<g>
</g>
<g>
</g>
<g>
</g>
<g>
</g>
<g>
</g>
<g>
</g>
<g>
</g>
<g>
</g>
<g>
</g>
</svg>
